<?xml version="1.0" standalone="no"?>
<!DOCTYPE svg PUBLIC "-//W3C//DTD SVG 20010904//EN"
 "http://www.w3.org/TR/2001/REC-SVG-20010904/DTD/svg10.dtd">
<svg version="1.0" xmlns="http://www.w3.org/2000/svg"
 width="1080.000000pt" height="1080.000000pt" viewBox="0 0 1080.000000 1080.000000"
 preserveAspectRatio="xMidYMid meet">
<metadata>
Created by potrace 1.14, written by Peter Selinger 2001-2017
</metadata>
<g transform="translate(0.000000,1080.000000) scale(0.100000,-0.100000)"
fill="#000000" stroke="none">
<path d="M6211 9695 c-141 -43 -211 -86 -342 -212 -116 -113 -132 -135 -144
-205 -5 -34 -9 -38 -35 -38 -15 0 -88 22 -162 49 -350 128 -541 166 -908 180
-295 12 -377 -4 -619 -120 -68 -32 -130 -59 -137 -59 -7 0 -25 -6 -41 -14 -15
-8 -57 -28 -93 -45 -36 -17 -95 -57 -131 -88 -37 -32 -94 -78 -128 -102 -34
-24 -61 -48 -61 -53 0 -6 -19 -32 -43 -58 -65 -72 -169 -247 -320 -536 -135
-261 -176 -358 -277 -664 -76 -229 -83 -275 -78 -469 5 -173 16 -220 54 -235
29 -11 35 14 28 104 -11 148 -13 323 -3 375 15 84 143 476 190 580 58 132 295
559 379 685 54 81 247 280 271 280 6 0 31 17 57 38 66 54 110 79 189 106 37
13 118 46 178 73 61 28 155 66 210 84 l100 33 235 4 c141 2 261 -1 300 -7 36
-6 106 -17 155 -25 186 -29 671 -188 697 -229 4 -7 8 -26 8 -43 0 -34 35 -104
100 -205 56 -86 146 -271 165 -339 53 -196 95 -336 104 -354 9 -19 47 -139
115 -367 48 -160 86 -382 111 -639 15 -157 18 -593 5 -750 -17 -211 -40 -460
-51 -550 -11 -97 -70 -296 -117 -398 -24 -52 -28 -55 -131 -106 -108 -55 -195
-79 -321 -91 -36 -3 -135 -18 -220 -33 l-155 -27 -865 0 c-1221 1 -1518 19
-1690 102 -42 20 -77 28 -157 34 -127 10 -210 24 -338 54 -191 45 -435 141
-528 207 -32 23 -107 121 -107 140 0 8 -8 24 -17 37 -19 28 -44 127 -37 146 4
9 27 3 86 -23 45 -19 94 -35 110 -34 16 0 26 -3 23 -7 -2 -5 7 -6 22 -3 19 4
24 2 18 -8 -5 -9 -2 -10 13 -6 11 4 23 3 26 -3 7 -11 104 -36 128 -32 10 1 18
-2 18 -7 0 -6 9 -8 19 -5 11 3 36 -3 56 -12 31 -15 56 -17 173 -12 127 5 142
7 205 37 38 17 112 60 165 96 53 36 118 73 145 82 38 13 47 21 45 37 -7 45
-144 23 -188 -30 -8 -9 -30 -25 -50 -35 -20 -10 -56 -35 -79 -54 -24 -20 -51
-36 -62 -36 -10 0 -40 -8 -67 -18 -40 -15 -68 -18 -160 -14 -62 2 -112 8 -112
13 0 5 -15 9 -33 9 -19 0 -37 3 -40 7 -4 3 -19 7 -34 8 -33 3 -116 26 -123 34
-3 3 -12 7 -20 8 -30 5 -75 15 -90 20 -24 10 -28 10 -61 12 -20 1 -41 11 -57
29 -15 15 -36 34 -46 42 -18 13 -19 13 -11 0 8 -13 7 -13 -9 0 -14 11 -17 25
-14 66 3 30 11 59 21 69 18 18 23 30 8 21 -5 -3 -12 14 -16 39 -5 40 -2 53 26
103 57 99 138 174 311 291 42 28 79 51 82 51 3 0 40 20 82 45 41 25 81 45 88
45 7 0 21 9 31 20 10 12 25 18 32 15 8 -2 12 -1 9 4 -3 5 3 11 14 14 12 3 18
1 14 -5 -10 -15 42 2 146 50 19 8 46 17 60 19 13 3 29 8 35 12 5 5 36 18 68
30 96 35 131 67 106 97 -20 25 -68 15 -197 -40 -70 -29 -138 -57 -152 -61 -14
-4 -38 -15 -55 -24 -16 -9 -52 -23 -78 -30 -26 -8 -89 -38 -138 -67 -50 -30
-94 -54 -98 -54 -3 0 -30 -16 -58 -35 -57 -38 -73 -43 -73 -20 0 8 -19 35 -43
59 -43 45 -92 66 -152 66 -143 0 -245 -138 -189 -256 21 -44 77 -93 115 -101
16 -3 28 -8 27 -12 -2 -3 -16 -30 -31 -59 -42 -81 -67 -191 -74 -332 -7 -149
6 -211 69 -340 49 -102 147 -205 218 -232 25 -9 92 -34 150 -56 130 -50 428
-129 541 -143 46 -5 85 -12 87 -14 2 -2 -8 -25 -22 -52 -53 -99 -95 -203 -149
-368 -63 -194 -85 -292 -128 -551 -16 -102 -36 -212 -44 -247 -29 -126 -104
-688 -116 -862 -7 -108 -10 -361 -8 -635 l4 -455 -125 -21 c-258 -44 -416
-108 -538 -218 -50 -45 -102 -158 -109 -234 -9 -102 39 -240 113 -322 49 -54
161 -89 191 -59 7 7 43 0 119 -25 252 -80 314 -96 414 -110 318 -45 642 -46
940 -2 229 34 399 66 406 77 3 5 15 9 27 9 12 0 72 13 132 30 61 16 127 32
148 35 27 4 37 11 37 24 0 14 10 20 40 25 22 3 54 12 72 20 18 8 123 36 233
62 l200 49 460 3 c468 4 742 -6 960 -33 74 -9 261 -18 491 -22 l370 -6 -4 37
c-5 46 20 76 93 113 118 59 588 351 663 411 32 25 98 82 147 127 123 110 189
164 260 212 85 57 189 157 317 302 131 149 489 594 550 683 23 35 68 98 100
142 66 89 274 421 398 636 46 80 128 219 183 310 117 193 135 231 222 469 36
98 91 237 124 307 32 71 64 147 71 169 7 22 19 53 27 68 8 16 17 56 20 90 3
34 14 76 24 93 19 31 19 32 0 55 -34 42 -90 33 -226 -35 -111 -54 -125 -65
-229 -170 -61 -62 -138 -150 -171 -197 -93 -131 -286 -385 -364 -479 -40 -47
-83 -105 -98 -130 -87 -149 -347 -457 -531 -628 -343 -320 -421 -385 -537
-447 -38 -21 -99 -56 -135 -78 -108 -67 -359 -186 -380 -180 -13 4 -29 -4 -48
-25 -20 -22 -42 -32 -75 -37 -118 -18 -161 16 -251 198 -36 73 -66 135 -66
140 0 4 19 7 42 7 l42 0 -46 48 c-70 71 -107 174 -173 484 -54 254 -176 643
-238 763 -60 117 -277 413 -329 449 -19 14 -19 14 4 30 12 9 34 16 48 16 48 0
77 47 153 251 45 119 73 272 87 471 6 84 18 218 27 298 23 210 13 799 -16
1020 -19 135 -58 349 -77 418 -5 16 -2 22 9 22 9 0 16 14 20 40 3 22 20 63 37
90 29 45 38 52 97 70 81 25 110 25 149 1 74 -45 148 -147 328 -453 99 -169
230 -328 271 -328 37 0 39 28 43 616 4 645 1 691 -67 1014 -63 294 -110 420
-217 582 -49 73 -100 117 -222 188 -95 56 -156 70 -327 76 -129 4 -146 2 -224
-21z m399 -84 c76 -24 169 -78 240 -139 51 -44 130 -142 130 -162 0 -6 14 -38
31 -72 33 -65 109 -286 109 -316 0 -9 7 -30 15 -45 8 -15 12 -34 8 -42 -3 -8
-1 -15 5 -15 5 0 12 -26 15 -57 3 -32 12 -110 21 -173 12 -91 16 -232 18 -671
3 -629 9 -594 -74 -474 -23 33 -45 62 -48 65 -3 3 -11 19 -19 35 -17 40 -121
217 -135 230 -6 6 -29 46 -51 89 -28 55 -64 103 -120 161 -70 72 -86 84 -132
95 -87 20 -190 -10 -249 -73 -48 -51 -84 -102 -84 -119 0 -29 -19 13 -49 110
-18 56 -37 102 -42 102 -5 0 -9 15 -9 34 0 19 -7 41 -15 50 -8 8 -15 24 -15
36 0 12 -6 36 -14 53 -16 37 -27 82 -28 115 0 12 -5 22 -10 22 -6 0 -8 7 -4
15 3 8 1 15 -4 15 -6 0 -10 12 -10 28 -1 15 -7 38 -15 52 -8 14 -14 35 -15 46
0 12 -6 24 -14 27 -7 3 -16 24 -19 48 -3 23 -14 54 -25 68 -10 14 -22 38 -25
52 -4 14 -17 37 -30 51 -13 14 -27 34 -31 44 -10 28 -89 158 -100 165 -10 8
-33 65 -45 116 -13 50 21 105 139 224 118 118 190 164 328 211 80 26 96 28
197 24 73 -3 132 -11 175 -25z m3207 -4078 c-45 -212 -62 -265 -111 -363 -51
-101 -69 -147 -67 -162 1 -5 -3 -8 -7 -8 -5 0 -9 -6 -10 -12 0 -7 -12 -44 -26
-81 -14 -37 -26 -77 -26 -87 0 -11 -5 -20 -12 -20 -6 0 -9 -3 -5 -6 3 -4 0
-19 -8 -35 -8 -15 -15 -37 -15 -49 0 -11 -5 -20 -11 -20 -5 0 -7 -4 -4 -10 3
-5 1 -10 -5 -10 -6 0 -8 -4 -5 -10 3 -5 1 -10 -4 -10 -6 0 -10 -3 -9 -7 4 -12
-110 -218 -174 -317 -32 -49 -58 -95 -58 -102 0 -7 -4 -14 -8 -16 -5 -1 -31
-46 -58 -98 -27 -52 -55 -101 -61 -108 -7 -7 -13 -17 -13 -22 0 -25 -423 -658
-505 -755 -14 -16 -67 -84 -118 -149 -109 -141 -224 -281 -319 -388 -37 -42
-68 -83 -68 -92 0 -9 -4 -16 -9 -16 -4 0 -60 -48 -122 -106 -63 -58 -143 -125
-180 -149 -36 -24 -90 -66 -120 -93 -29 -28 -85 -76 -124 -107 -38 -31 -79
-67 -91 -79 -11 -11 -27 -25 -36 -31 -84 -54 -157 -105 -162 -114 -4 -6 -27
-20 -51 -31 -23 -11 -64 -35 -89 -55 -25 -19 -52 -35 -60 -35 -7 0 -21 -9 -31
-20 -10 -11 -21 -18 -25 -15 -8 5 -161 -91 -171 -107 -3 -5 -10 -10 -15 -10
-36 -1 -158 -89 -199 -143 l-28 -36 -96 4 c-53 3 -204 10 -336 16 -132 6 -278
16 -325 21 -123 15 -915 33 -1190 27 -194 -4 -251 -8 -330 -26 -111 -26 -408
-109 -424 -119 -6 -3 -21 -8 -33 -9 -12 -2 -76 -21 -144 -43 -67 -22 -126 -40
-131 -40 -18 0 -6 21 55 97 35 43 80 103 99 135 20 31 60 85 88 120 66 82 150
203 150 217 0 47 -103 -44 -191 -169 -21 -30 -105 -140 -186 -244 l-148 -190
-90 -18 c-284 -57 -353 -63 -695 -62 -255 1 -346 5 -425 18 -115 19 -377 90
-417 112 -29 16 -159 34 -244 34 -64 0 -88 24 -132 132 -38 92 -40 140 -11
233 17 55 31 78 72 119 112 111 356 196 562 196 52 0 54 -1 77 -42 44 -80 48
-68 48 165 l0 216 26 20 c15 12 32 21 40 21 7 0 26 11 42 25 17 14 33 25 36
25 34 0 331 299 408 412 18 26 54 79 81 117 26 38 54 86 61 107 8 22 31 77 51
124 21 47 55 132 78 190 22 58 48 123 58 145 10 22 21 54 25 70 4 17 11 35 16
41 5 7 8 16 7 20 -1 5 3 23 10 39 7 17 18 55 24 85 6 30 14 57 17 60 6 6 7 11
33 115 11 44 24 88 29 98 5 10 6 22 2 28 -3 5 -1 15 4 22 6 7 22 59 37 117 14
58 55 200 91 315 36 116 68 229 71 253 3 23 10 42 15 42 5 0 6 9 3 20 -4 12
-2 20 5 20 6 0 8 10 4 25 -4 16 -2 25 6 25 8 0 9 10 5 28 -3 17 1 41 12 62 9
19 18 48 20 65 1 16 5 40 8 51 l5 22 762 -5 c775 -5 943 -1 1198 32 376 48
438 57 467 65 58 15 94 -18 242 -225 55 -77 108 -151 118 -165 10 -14 26 -45
36 -70 62 -151 202 -590 222 -694 9 -44 21 -94 27 -111 5 -16 12 -47 14 -69 2
-21 7 -44 12 -50 4 -6 9 -24 11 -41 1 -16 9 -43 16 -60 7 -16 16 -48 19 -71 9
-61 53 -209 91 -302 61 -150 174 -278 254 -289 51 -7 307 78 336 112 11 13
119 78 240 145 228 126 244 136 359 229 358 290 695 647 906 958 68 100 178
244 282 368 28 34 60 77 72 96 91 152 268 362 365 433 57 42 199 115 225 116
15 0 17 -5 13 -27z m-7217 -2747 c0 -2 -8 -10 -17 -17 -16 -13 -17 -12 -4 4
13 16 21 21 21 13z m-210 -209 c0 -2 -10 -12 -22 -23 l-23 -19 19 23 c18 21
26 27 26 19z"/>
<path d="M3680 8678 c-54 -17 -75 -31 -131 -87 -211 -211 -340 -577 -327 -927
4 -104 10 -135 45 -247 25 -78 53 -146 72 -172 17 -24 31 -48 31 -55 0 -6 4
-8 10 -5 5 3 15 -5 22 -19 7 -16 32 -36 67 -52 48 -23 70 -27 155 -28 71 -1
100 3 103 12 3 6 16 12 30 12 56 0 185 98 273 208 132 164 186 307 175 462
-15 212 -27 321 -46 400 -46 189 -142 394 -218 463 -26 23 -56 38 -90 46 -70
15 -95 13 -171 -11z m209 -72 c19 -14 45 -42 58 -62 60 -87 158 -333 175 -439
16 -99 27 -396 16 -440 -5 -22 -32 -86 -60 -143 -45 -92 -61 -112 -139 -185
-127 -120 -213 -168 -329 -183 -42 -6 -51 -4 -45 6 5 9 4 11 -3 6 -47 -29
-212 170 -212 254 0 11 -9 29 -21 41 -14 14 -20 30 -17 49 3 17 0 26 -5 23 -6
-4 -8 5 -5 21 3 14 1 29 -3 32 -14 8 -10 210 6 316 21 139 50 246 90 329 19
40 38 88 41 106 3 18 10 31 14 28 5 -3 6 4 3 15 -4 14 2 23 20 31 14 6 37 33
51 59 29 53 111 122 172 144 21 8 66 15 100 15 49 1 66 -4 93 -23z"/>
<path d="M3580 7861 c-166 -55 -253 -213 -206 -376 14 -46 29 -69 74 -114 87
-86 184 -110 302 -75 74 22 159 107 183 183 61 190 -66 377 -263 387 -36 2
-76 0 -90 -5z"/>
</g>
</svg>
